<?xml version="1.0" standalone="no"?><!DOCTYPE svg PUBLIC "-//W3C//DTD SVG 1.1//EN" "http://www.w3.org/Graphics/SVG/1.1/DTD/svg11.dtd"><svg t="1579078282062" class="icon" viewBox="0 0 1024 1024" version="1.1" xmlns="http://www.w3.org/2000/svg" p-id="4170" xmlns:xlink="http://www.w3.org/1999/xlink" width="200" height="200"><defs><style type="text/css"></style></defs><path d="M512 512m-512 0a512 512 0 1 0 1024 0 512 512 0 1 0-1024 0Z" fill="#27BB07" p-id="4171"></path><path d="M242.107411 512m7.240773-7.240773l255.411043-255.411043q7.240773-7.240773 14.481546 0l255.411043 255.411043q7.240773 7.240773 0 14.481546l-255.411043 255.411043q-7.240773 7.240773-14.481546 0l-255.411043-255.411043q-7.240773-7.240773 0-14.481546Z" fill="#FFFFFF" p-id="4172"></path><path d="M532.48 469.98528v54.8352h68.7104v30.72H532.48V645.12h-30.72V469.98528h-35.55328a10.24 10.24 0 0 1-7.14752-17.58208l53.20704-51.79392a10.24 10.24 0 0 1 14.2848 0l53.1968 51.79392a10.24 10.24 0 0 1-7.14752 17.58208H532.48z" fill="#09BB07" p-id="4173"></path></svg>